<?xml version="1.0" encoding="utf-8"?>
<!-- Generator: Adobe Illustrator 16.0.0, SVG Export Plug-In . SVG Version: 6.00 Build 0)  -->
<!DOCTYPE svg PUBLIC "-//W3C//DTD SVG 1.1//EN" "http://www.w3.org/Graphics/SVG/1.1/DTD/svg11.dtd">
<svg version="1.1" id="Layer_1" xmlns="http://www.w3.org/2000/svg" xmlns:xlink="http://www.w3.org/1999/xlink" x="0px" y="0px"
	 width="216px" height="63px" viewBox="0 75.5 216 63" enable-background="new 0 75.5 216 63" xml:space="preserve">
<title>6</title>
<desc>Created with Sketch.</desc>
<g>
	<g>
		<path fill="#FFFFFF" d="M24.048,123.338c-5.294,0-9.586-4.292-9.586-9.586c0-5.099,3.98-9.269,9.004-9.569
			c1.515-6.599,7.424-11.521,14.482-11.521c4.1,0,7.812,1.66,10.5,4.345c1.075-0.331,2.216-0.51,3.4-0.51
			c6.354,0,11.504,5.149,11.504,11.503c0,0.327-0.014,0.651-0.041,0.972c3.766,0.227,6.75,3.354,6.75,7.177
			c0,3.087-1.946,5.72-4.678,6.738c-0.617,0.29-1.306,0.451-2.032,0.451H24.048L24.048,123.338z"/>
	</g>
</g>
<title>6</title>
<desc>Created with Sketch.</desc>
<g>
	<g>
		<path fill="#FFFFFF" d="M89.048,123.338c-5.294,0-9.586-4.292-9.586-9.586c0-5.099,3.98-9.269,9.004-9.569
			c1.515-6.599,7.424-11.521,14.481-11.521c4.101,0,7.811,1.66,10.497,4.345c1.074-0.331,2.216-0.51,3.399-0.51
			c6.354,0,11.504,5.149,11.504,11.503c0,0.327-0.014,0.651-0.041,0.972c3.767,0.227,6.751,3.354,6.751,7.177
			c0,3.087-1.946,5.72-4.679,6.738c-0.617,0.29-1.305,0.451-2.031,0.451H89.048L89.048,123.338z"/>
	</g>
</g>
<title>6</title>
<desc>Created with Sketch.</desc>
<g>
	<g>
		<path fill="#FFFFFF" d="M154.044,123.338c-5.294,0-9.586-4.292-9.586-9.586c0-5.099,3.98-9.269,9.004-9.569
			c1.515-6.599,7.424-11.521,14.481-11.521c4.101,0,7.812,1.66,10.5,4.345c1.075-0.331,2.217-0.51,3.4-0.51
			c6.354,0,11.504,5.149,11.504,11.503c0,0.327-0.014,0.651-0.041,0.972c3.767,0.227,6.751,3.354,6.751,7.177
			c0,3.087-1.946,5.72-4.679,6.738c-0.617,0.29-1.305,0.451-2.031,0.451H154.044L154.044,123.338z"/>
	</g>
</g>
</svg>
