<?xml version="1.0" encoding="utf-8"?>
<!-- Generator: Adobe Illustrator 16.0.0, SVG Export Plug-In . SVG Version: 6.00 Build 0)  -->
<!DOCTYPE svg PUBLIC "-//W3C//DTD SVG 1.1//EN" "http://www.w3.org/Graphics/SVG/1.1/DTD/svg11.dtd">
<svg version="1.1" id="Layer_1" xmlns="http://www.w3.org/2000/svg" xmlns:xlink="http://www.w3.org/1999/xlink" x="0px" y="0px"
	 width="1100px" height="60px" viewBox="0 0 1100 60" enable-background="new 0 0 1100 60" xml:space="preserve">
<g>
	<path fill="#FFFFFF" d="M460.738,24.371c0.883-0.609,1.324-1.617,1.324-3.023c0-1.312-0.48-2.254-1.441-2.824
		s-2.48-0.855-4.559-0.855h-3.82v7.617h4.219C458.43,25.285,459.855,24.98,460.738,24.371z"/>
	<path fill="#FFFFFF" d="M456.742,31.051h-4.5v8.93h4.734c2,0,3.477-0.383,4.43-1.148s1.43-1.938,1.43-3.516
		C462.836,32.473,460.805,31.051,456.742,31.051z"/>
	<path fill="#FFFFFF" d="M0,0v60h1100V0H0z M399.145,43.777c-2.227,1.781-5.324,2.672-9.293,2.672c-3.656,0-6.891-0.688-9.703-2.062
		v-6.75c2.312,1.031,4.27,1.758,5.871,2.18s3.066,0.633,4.395,0.633c1.594,0,2.816-0.305,3.668-0.914s1.277-1.516,1.277-2.719
		c0-0.672-0.188-1.27-0.562-1.793s-0.926-1.027-1.652-1.512s-2.207-1.258-4.441-2.32c-2.094-0.984-3.664-1.93-4.711-2.836
		s-1.883-1.961-2.508-3.164s-0.938-2.609-0.938-4.219c0-3.031,1.027-5.414,3.082-7.148s4.895-2.602,8.52-2.602
		c1.781,0,3.48,0.211,5.098,0.633s3.309,1.016,5.074,1.781l-2.344,5.648c-1.828-0.75-3.34-1.273-4.535-1.57
		s-2.371-0.445-3.527-0.445c-1.375,0-2.43,0.32-3.164,0.961s-1.102,1.477-1.102,2.508c0,0.641,0.148,1.199,0.445,1.676
		s0.77,0.938,1.418,1.383s2.184,1.246,4.605,2.402c3.203,1.531,5.398,3.066,6.586,4.605s1.781,3.426,1.781,5.66
		C402.484,39.559,401.371,41.996,399.145,43.777z M436.586,33.887c0,2.531-0.566,4.75-1.699,6.656s-2.77,3.367-4.91,4.383
		s-4.672,1.523-7.594,1.523c-4.406,0-7.828-1.129-10.266-3.387s-3.656-5.348-3.656-9.27V11.715h7.242v20.977
		c0,2.641,0.531,4.578,1.594,5.812s2.82,1.852,5.273,1.852c2.375,0,4.098-0.621,5.168-1.863s1.605-3.191,1.605-5.848v-20.93h7.242
		V33.887z M466.996,43.355c-2.258,1.75-5.324,2.625-9.199,2.625h-12.82V11.715h10.664c4.859,0,8.387,0.691,10.582,2.074
		s3.293,3.582,3.293,6.598c0,2.047-0.48,3.727-1.441,5.039s-2.238,2.102-3.832,2.367v0.234c2.172,0.484,3.738,1.391,4.699,2.719
		s1.441,3.094,1.441,5.297C470.383,39.168,469.254,41.605,466.996,43.355z M498.391,45.98h-21.164V11.715h7.266V39.98h13.898V45.98z
		 M511.609,45.98h-7.266V11.715h7.266V45.98z M556.867,45.98h-6.773V29.762c0-0.766,0.012-1.648,0.035-2.648
		s0.129-3.656,0.316-7.969h-0.211l-8.836,26.836h-6.656l-8.25-26.883h-0.211c0.297,5.469,0.445,9.117,0.445,10.945V45.98h-6.492
		V11.715h9.891l8.109,26.203h0.141l8.602-26.203h9.891V45.98z M585.227,17.668h-12.469v7.523h11.602v5.953h-11.602v8.836h12.469v6
		h-19.734V11.715h19.734V17.668z"/>
</g>
</svg>
